<mxfile host="app.diagrams.net" modified="2021-07-06T13:34:34.935Z" agent="5.0 (Windows NT 10.0; Win64; x64) AppleWebKit/537.36 (KHTML, like Gecko) Chrome/91.0.4472.114 Safari/537.36 OPR/77.0.4054.172" etag="L_bIKNJguTOroLn0q_pR" version="14.8.4" type="github">
  <diagram name="Page-1" id="e7e014a7-5840-1c2e-5031-d8a46d1fe8dd">
    <mxGraphModel dx="828" dy="483" grid="1" gridSize="10" guides="1" tooltips="1" connect="1" arrows="1" fold="1" page="1" pageScale="1" pageWidth="1169" pageHeight="826" background="none" math="0" shadow="0">
      <root>
        <mxCell id="0" />
        <mxCell id="1" parent="0" />
        <mxCell id="2" value="Staff Klinik" style="swimlane;whiteSpace=wrap" parent="1" vertex="1">
          <mxGeometry x="90" y="128" width="350" height="412" as="geometry" />
        </mxCell>
        <mxCell id="5" value="" style="ellipse;shape=startState;fillColor=#000000;strokeColor=none;" parent="2" vertex="1">
          <mxGeometry x="162.25" y="40" width="30" height="30" as="geometry" />
        </mxCell>
        <mxCell id="6" value="" style="edgeStyle=elbowEdgeStyle;elbow=horizontal;verticalAlign=bottom;endArrow=open;endSize=8;strokeColor=#FF0000;endFill=1;rounded=0" parent="2" source="5" target="7" edge="1">
          <mxGeometry x="100" y="40" as="geometry">
            <mxPoint x="115" y="110" as="targetPoint" />
          </mxGeometry>
        </mxCell>
        <mxCell id="7" value="Merekap Hasil Transaksi Pembayaran &#xa;dan Pendaftran Pasien" style="" parent="2" vertex="1">
          <mxGeometry x="70.88" y="110" width="212.75" height="50" as="geometry" />
        </mxCell>
        <mxCell id="8" value="Membuat&#xa;Laporan" style="" parent="2" vertex="1">
          <mxGeometry x="122.25" y="202" width="110" height="50" as="geometry" />
        </mxCell>
        <mxCell id="9" value="" style="endArrow=open;strokeColor=#FF0000;endFill=1;rounded=0" parent="2" source="7" target="8" edge="1">
          <mxGeometry relative="1" as="geometry" />
        </mxCell>
        <mxCell id="C3pK07ns1bqNZINAd856-44" value="Start" style="text;html=1;strokeColor=none;fillColor=none;align=center;verticalAlign=middle;whiteSpace=wrap;rounded=0;" parent="2" vertex="1">
          <mxGeometry x="110" y="40" width="40" height="20" as="geometry" />
        </mxCell>
        <mxCell id="3" value="Manajement" style="swimlane;whiteSpace=wrap" parent="1" vertex="1">
          <mxGeometry x="440" y="127" width="285" height="413" as="geometry" />
        </mxCell>
        <mxCell id="18" value="MenerimaÂ &#xa;Laporan" style="" parent="3" vertex="1">
          <mxGeometry x="90" y="202" width="110" height="50" as="geometry" />
        </mxCell>
        <mxCell id="13" value="" style="ellipse;shape=startState;fillColor=#000000;strokeColor=#1C0000;" parent="3" vertex="1">
          <mxGeometry x="130" y="323" width="30" height="30" as="geometry" />
        </mxCell>
        <mxCell id="C3pK07ns1bqNZINAd856-45" value="Stop" style="text;html=1;strokeColor=none;fillColor=none;align=center;verticalAlign=middle;whiteSpace=wrap;rounded=0;" parent="3" vertex="1">
          <mxGeometry x="160" y="343" width="40" height="20" as="geometry" />
        </mxCell>
        <mxCell id="-gBgQy3QOKIPqrP6CjdA-18" value="" style="ellipse;whiteSpace=wrap;html=1;aspect=fixed;strokeColor=#1C0000;fillColor=none;" vertex="1" parent="3">
          <mxGeometry x="130" y="323" width="30" height="30" as="geometry" />
        </mxCell>
        <mxCell id="C3pK07ns1bqNZINAd856-43" value="" style="endArrow=classic;html=1;strokeColor=#FF0000;exitX=0.5;exitY=1;exitDx=0;exitDy=0;" parent="3" source="18" target="-gBgQy3QOKIPqrP6CjdA-18" edge="1">
          <mxGeometry width="50" height="50" relative="1" as="geometry">
            <mxPoint x="-45" y="223" as="sourcePoint" />
            <mxPoint x="145" y="313" as="targetPoint" />
          </mxGeometry>
        </mxCell>
        <mxCell id="C3pK07ns1bqNZINAd856-42" value="" style="endArrow=classic;html=1;entryX=0;entryY=0.5;entryDx=0;entryDy=0;exitX=1;exitY=0.5;exitDx=0;exitDy=0;strokeColor=#FF0000;" parent="1" source="8" target="18" edge="1">
          <mxGeometry width="50" height="50" relative="1" as="geometry">
            <mxPoint x="400" y="350" as="sourcePoint" />
            <mxPoint x="450" y="300" as="targetPoint" />
          </mxGeometry>
        </mxCell>
      </root>
    </mxGraphModel>
  </diagram>
</mxfile>
